<svg xmlns="http://www.w3.org/2000/svg" xmlns:xlink="http://www.w3.org/1999/xlink" xml:space="preserve" version="1.1" style="shape-rendering:geometricPrecision;text-rendering:geometricPrecision;image-rendering:optimizeQuality;" viewBox="0 0 2326 2878.75" x="0px" y="0px" fill-rule="evenodd" clip-rule="evenodd"><defs><style type="text/css">
   
    .fil0 {fill:black}
   
  </style></defs><g><path class="fil0" d="M1836 604c4,31 13,62 23,92 6,17 15,25 23,41 21,45 52,83 68,131 17,51 27,124 18,178 -3,16 -5,34 -8,50 -18,81 -46,160 -88,231 -1,2 -3,5 -3,6 -17,27 -34,54 -50,81 -1,1 -3,3 -4,4 -4,6 -7,12 -10,17 -16,21 -32,43 -48,64 -1,2 -2,3 -4,5 -49,55 -98,110 -147,165 -1,1 -2,2 -3,3 -14,14 -29,28 -43,42 -6,5 -8,5 -14,11 -3,3 -7,7 -11,10 -33,28 -64,59 -99,86 -64,47 -127,96 -193,142 -44,31 -157,75 -211,93 -14,5 -25,7 -40,11 -54,16 -109,27 -166,38 -27,5 -54,10 -80,16 -158,35 -162,46 -341,69 -43,5 -213,10 -236,15 -32,6 -125,10 -146,31 -6,7 -2,2 -3,10 0,3 0,5 -1,7 -2,6 -10,11 -15,25 -3,9 -4,2 -4,15 0,21 65,3 86,5 9,1 18,0 26,1 59,0 118,1 177,2 12,0 9,-2 22,-2 91,2 180,-13 269,-31 31,-6 63,-13 94,-21 81,-19 177,-32 262,-49 65,-13 159,-38 217,-66 38,-19 80,-32 116,-55 8,-6 14,-6 23,-12 35,-24 70,-45 105,-69 30,-21 61,-44 89,-69 5,-5 10,-7 15,-12 14,-10 27,-21 40,-32 1,-1 3,-2 4,-4 26,-23 52,-46 78,-69 1,-1 1,-1 2,-1 21,-21 43,-41 64,-62 3,-2 6,-5 8,-8 3,-2 4,-3 7,-6 25,-28 51,-55 76,-83 8,-9 17,-20 25,-31 49,-68 95,-138 143,-207l26 -52c4,-8 6,-10 10,-19 10,-23 26,-58 34,-81 23,-68 48,-160 48,-230 1,-52 -1,-85 -10,-127 -1,-5 -3,-10 -4,-16 -4,-19 -10,-46 -20,-67 -3,-7 -5,-12 -9,-20 -7,-13 -14,-24 -22,-37 -18,-30 -36,-61 -54,-91 0,0 0,-1 -1,-1 -32,-37 -26,-121 -7,-162 4,-10 5,-10 8,-21 9,-27 26,-50 44,-72 29,-37 59,-73 89,-108 7,-7 9,-6 16,-14 2,-2 4,-5 7,-7 26,-25 52,-51 80,-74 12,-10 23,-17 34,-26 10,-9 20,-17 31,-25 12,-10 65,-37 67,-47 2,-7 1,-15 2,-22 1,-17 6,-2 9,-16 2,-10 -13,-8 -11,-16 16,-49 -30,-5 -41,1 -26,16 -53,31 -78,48 -32,22 -65,45 -92,72 -10,10 -25,21 -35,31 -19,16 -36,32 -53,49 -3,2 -5,6 -7,9 -8,8 -16,16 -24,24 0,0 -1,1 -1,1 -25,30 -49,59 -73,89 -1,2 -3,3 -4,6 -18,34 -38,67 -53,103 -13,33 -22,73 -18,110zm-1346 1338c0,15 5,13 -2,23 -3,5 -6,9 -7,14 -4,19 -13,13 1,28 11,12 34,2 51,3 49,0 142,-31 193,-46 10,-2 12,-4 21,-7 5,-2 6,1 20,-5 6,-3 5,-3 9,-5 24,-11 47,-24 71,-35 23,-11 52,-30 76,-42 14,-6 28,-12 41,-18 21,-9 38,-23 58,-33 32,-16 65,-31 98,-46 8,-4 13,-6 21,-9 39,-19 78,-42 114,-65 22,-14 54,-32 72,-49 29,-26 58,-50 87,-76 4,-4 4,-4 8,-8 20,-21 52,-58 68,-82 0,0 1,-1 1,-2 25,-34 48,-69 74,-102 18,-23 33,-47 51,-70 1,-2 3,-4 4,-6 3,-4 6,-7 8,-11 7,-10 2,-12 2,-20 0,-12 6,-27 7,-38 1,-7 1,-13 2,-20 2,-9 18,-16 4,-19 -28,-8 -38,4 -55,27 -5,5 -9,10 -14,16 -12,17 -25,33 -38,50 -7,9 -23,29 -30,37 -23,24 -47,48 -67,75 -4,6 -8,11 -12,17 -16,19 -31,38 -47,58 -21,25 -48,40 -74,59 -3,2 -5,5 -9,7 -39,27 -78,53 -118,77 -55,34 -58,35 -121,59 -8,3 -14,7 -20,10 -33,17 -65,34 -98,51 -30,16 -64,31 -94,48 -7,4 -14,8 -21,11 -7,4 -13,6 -20,10 -40,20 -51,32 -100,47 -69,21 -148,36 -206,81 -3,2 -9,3 -9,6zm-212 -570c0,4 -5,4 -8,6 0,0 -2,-1 -2,0 -10,3 -20,8 -30,11 -7,3 2,-1 -4,2 -151,73 248,-13 283,-21 89,-23 178,-44 268,-67 7,-2 9,-4 17,-7 30,-11 60,-22 89,-33 12,-5 22,-10 33,-16 11,-6 23,-10 34,-17 27,-17 51,-35 75,-55 9,-7 25,-19 32,-28 11,-11 21,-22 31,-33 13,-14 27,-27 38,-42 35,-48 68,-97 101,-146 8,-11 10,-19 17,-31 15,-25 30,-50 45,-75 4,-6 5,-10 9,-16 17,-31 31,-65 46,-98 3,-7 7,-13 10,-19 3,-4 20,-40 23,-47 4,-8 4,-9 7,-17 3,-9 3,-9 7,-17 12,-30 33,-112 45,-151 20,-68 23,-79 63,-132 7,-8 15,-15 23,-23 29,-29 77,-63 111,-86 11,-8 20,-13 31,-20 10,-7 18,-15 28,-21 12,-7 37,-25 49,-29 18,-6 93,-54 102,-68 5,-7 2,0 4,-10 4,-21 33,-55 13,-62 -59,-20 -97,38 -151,58 -31,11 -105,61 -135,79 -29,17 -58,42 -83,63 -6,6 -16,11 -22,17 -17,14 -35,31 -47,49 -4,4 -7,9 -10,14 -17,22 -24,30 -38,56 -25,50 -36,109 -53,161 -19,56 -21,66 -47,119 -20,38 -38,76 -57,115 -3,6 -7,12 -10,19 -1,2 -3,5 -5,8 -7,11 -12,24 -20,34 -12,16 -22,40 -33,58 -3,6 -6,11 -10,17 -27,42 -54,88 -88,125 -15,17 -28,35 -43,51 -7,6 -13,12 -20,18 -9,9 -16,13 -25,23 -49,50 -118,79 -183,104 -62,24 -125,44 -188,66 -5,1 -14,3 -20,4 -12,4 -22,8 -36,12 -107,33 -215,65 -322,98 -6,2 -9,3 -5,3 18,2 38,-7 53,-7 11,0 8,-5 8,4zm-117 295c0,4 -4,4 -7,10 -7,16 -18,33 -1,43 44,27 146,-1 203,-11 32,-5 65,-12 97,-17 12,-2 17,-3 28,-5 40,-8 108,-36 134,-72 13,-18 35,-39 44,-52 4,-7 0,-4 6,-10 4,-6 14,-10 20,-12 53,-16 40,-5 88,-12 15,-2 46,2 56,3 22,2 33,-6 46,-15 18,-14 27,2 38,-30 8,-23 -41,-20 -51,-24 -2,0 -9,-4 -12,-4 -16,-4 -33,-9 -50,-12 -30,-4 -53,-7 -91,-5 -9,0 -17,3 -28,4 -3,1 -13,1 -15,3 -19,10 -40,19 -57,32 -20,15 -26,21 -44,44 -50,65 -78,53 -162,66 -38,6 -77,12 -114,19 -19,3 -42,4 -59,9 -18,5 -32,9 -49,17 -22,11 -26,13 -26,22 2,17 4,-8 6,9zm1405 -1122c-4,-3 -8,-6 -3,-8 11,-3 23,-5 8,-11 -19,-6 -27,9 -42,33 -10,17 -18,34 -27,51 -10,20 -10,27 -15,41 -5,13 -10,26 -14,39 -2,7 -4,21 -7,31 -2,10 -5,19 -6,28 -4,26 -8,28 -9,64 -2,38 -4,106 -9,133 -5,33 -13,58 -30,85 -14,21 -52,55 -68,74 -1,1 -3,4 -5,6 -4,5 0,1 -4,4 -8,8 -17,15 -25,23 -3,4 -7,7 -10,11 -23,26 -31,43 -48,65 -9,10 -15,22 -24,32 -9,12 -11,17 -26,33 -9,11 -29,36 -27,50 0,3 8,-2 8,0 3,29 -7,11 1,34 3,10 -1,7 5,13 1,0 2,1 2,1 15,7 21,-4 33,-15 7,-6 14,-12 21,-19 14,-13 10,-12 30,-29 3,-3 7,-7 11,-10 13,-14 21,-14 32,-27 6,-7 11,-13 17,-20 13,-15 25,-31 39,-44 26,-24 11,-18 29,-33 14,-11 18,-16 29,-30 21,-26 43,-52 61,-81 29,-47 32,-110 33,-168 0,-63 6,-145 21,-204 5,-22 10,-41 18,-62 19,-54 -3,-6 9,-68 2,-12 8,7 11,-3 1,-9 -14,-15 -19,-19z"/></g><text x="0" y="2318" fill="#000000" font-size="5px" font-weight="bold" font-family="'Helvetica Neue', Helvetica, Arial-Unicode, Arial, Sans-serif">Created by Dong Ik Seo</text><text x="0" y="2323" fill="#000000" font-size="5px" font-weight="bold" font-family="'Helvetica Neue', Helvetica, Arial-Unicode, Arial, Sans-serif">from the Noun Project</text></svg>