<svg xmlns="http://www.w3.org/2000/svg" version="1.1" viewBox="0 0 34 42.5" x="0px" y="0px"><title>chemical</title><path d="M22.587 1.458c0.325 0 0.582 0.256 0.582 0.582s-0.258 0.584-0.582 0.584h-1.281v10.898l8.588 12.887c1.759 2.64-0.106 6.133-3.271 6.133h-19.244c-3.168 0-5.031-3.494-3.271-6.133 0.511-0.767 8.222-12.341 8.527-12.797l0.059-0.090v-10.898h-1.279c-0.324 0-0.582-0.258-0.582-0.584s0.257-0.582 0.582-0.582zM20.142 2.624h-6.285v0.35c0 5.853 0.016 8.585 0.004 9.885-0.006 0.65-0.024 0.948-0.041 1.053s0.024-0.015-0.062 0.115l-4.041 6.064 0.717-0.055c4.237-0.327 6.989-1.976 12.637-0.676l0.857 0.197-3.686-5.533c-0.086-0.128-0.047-0.008-0.064-0.115s-0.033-0.409-0.039-1.061c-0.012-1.303 0.004-4.035 0.004-9.875zM19.417 20.026c-3.604-0.048-6.481 1.165-10.303 1.238l-0.184 0.004-3.857 5.789c-1.22 1.831 0.107 4.316 2.303 4.316h19.246c2.198 0 3.523-2.487 2.305-4.316l-3.932-5.898-0.104-0.041c-2.055-0.78-3.836-1.070-5.475-1.092z"/><text x="0" y="49" fill="#000000" font-size="5px" font-weight="bold" font-family="'Helvetica Neue', Helvetica, Arial-Unicode, Arial, Sans-serif">Created by shuai tawf</text><text x="0" y="54" fill="#000000" font-size="5px" font-weight="bold" font-family="'Helvetica Neue', Helvetica, Arial-Unicode, Arial, Sans-serif">from the Noun Project</text></svg>