<svg xmlns="http://www.w3.org/2000/svg" version="1.1" viewBox="-5.0 -10.0 110.0 135.0">
 <path d="m54.703 89.387c-1.3438 0.76562-2.8711 1.1797-4.4492 1.1797h-36.945c-2.543 0-4.9688-1.0781-6.6719-2.9648-1.707-1.8867-2.5312-4.4102-2.2734-6.9375l6.0312-59.277c0.10156-0.99609 0.94141-1.7539 1.9414-1.7539h6.8203c1.0195 0 1.8672 0.78125 1.9453 1.7969l1.4922 18.828h18.375l1.4922-18.828c0.082031-1.0156 0.92969-1.7969 1.9453-1.7969h6.8203c1 0 1.8398 0.75781 1.9414 1.7539l0.90625 8.9102c2.3281-2.6133 4.8008-4.3633 6.1562-5.2266l-0.007813-2.918c-1.0156-0.070313-1.8164-0.91406-1.8164-1.9492v-8.8438c0-1.0781 0.875-1.9531 1.9531-1.9531h23.328c1.0781 0 1.9531 0.875 1.9531 1.9531v8.8438c0 1.0312-0.80078 1.875-1.8164 1.9492-0.003907 1.3555-0.007813 2.9258-0.007813 2.9258 3.0664 1.9648 11.836 8.5312 11.836 19.285v34.859c0 6.2656-5.0781 11.344-11.344 11.344h-24.57c-1.8086 0-3.5195-0.42578-5.0391-1.1797zm-0.042969-53.348 4.5391 44.621c0.20703 2.0312-0.28516 4.0547-1.3672 5.75 0.60938 0.16016 1.25 0.24609 1.9102 0.24609h24.57c4.1094 0 7.4414-3.332 7.4414-7.4414v-34.859c0-10.82-10.801-16.461-10.801-16.461-0.64062-0.33984-1.043-1.0039-1.0391-1.7305l0.011719-4.0156h-15.793l0.011719 4.0156c0 0.72656-0.39844 1.3906-1.0391 1.7305 0 0-5.2422 2.7773-8.4375 8.1406zm-1.2266 49.504c0.21094-0.16797 0.41016-0.35547 0.59375-0.5625 0.96484-1.0664 1.4336-2.4961 1.2852-3.9258l-5.8516-57.523h-3.25l-1.4922 18.828c-0.082031 1.0156-0.92969 1.7969-1.9453 1.7969h-21.984c-1.0195 0-1.8672-0.78125-1.9453-1.7969l-1.4922-18.828h-3.25l-5.8516 57.523c-0.14453 1.4336 0.32031 2.8594 1.2852 3.9258 0.96484 1.0664 2.3359 1.6758 3.7773 1.6758h36.945c1.1406 0 2.2422-0.38281 3.1289-1.0781 0.015625-0.011719 0.035156-0.027344 0.050781-0.039063zm28.305-72.234h-19.422v4.9414h19.422z" fill-rule="evenodd"/>
<text x="0.0" y="117.5" font-size="5.0" font-weight="bold" font-family="Arbeit Regular, Helvetica, Arial-Unicode, Arial, Sans-serif" fill="#000000">by Muhammad Nur Auliady Pamungkas</text><text x="0.0" y="122.5" font-size="5.0" font-weight="bold" font-family="Arbeit Regular, Helvetica, Arial-Unicode, Arial, Sans-serif" fill="#000000">from Noun Project</text></svg>